{"title":"The.Suicide.Theory.2014.720p.WEB-DL.XviD.MP3-RARBG","uid":12112524,"size":3179484834,"categoryP":"video","categoryS":"movies","magnet":"?xt=urn:btih:69213237682853371863f1113aca0e6c370d212f&amp;dn=The.Suicide.Theory.2014.720p.WEB-DL.XviD.MP3-RARBG&amp;tr=udp%3A%2F%2Ftracker.openbittorrent.com%3A80&amp;tr=udp%3A%2F%2Fopen.demonii.com%3A1337&amp;tr=udp%3A%2F%2Ftracker.coppersurfer.tk%3A6969&amp;tr=udp%3A%2F%2Fexodus.desync.com%3A6969","seeders":1,"leechers":0,"uploader":null,"files":5,"time":1436612894,"description":"Video\nID                                       : 0\nFormat                                   : MPEG-4 Visual\nFormat profile                           : Simple@L5\nFormat settings, BVOP                    : No\nFormat settings, QPel                    : No\nFormat settings, GMC                     : No warppoints\nFormat settings, Matrix                  : Default (H.263)\nCodec ID                                 : XVID\nCodec ID/Hint                            : XviD\nDuration                                 : 1h 36mn\nBit rate                                 : 4 202 Kbps\nWidth                                    : 1 280 pixels\nHeight                                   : 530 pixels\nDisplay aspect ratio                     : 2.40:1\nFrame rate                               : 24.000 fps\nColor space                              : YUV\nChroma subsampling                       : 4:2:0\nBit depth                                : 8 bits\nScan type                                : Progressive\nCompression mode                         : Lossy\nBits/(Pixel*Frame)                       : 0.258\nStream size                              : 2.82 GiB (95%)\nWriting library                          : Lavc56.13.100\n\nAudio\nID                                       : 1\nFormat                                   : MPEG Audio\nFormat version                           : Version 1\nFormat profile                           : Layer 3\nMode                                     : Joint stereo\nCodec ID                                 : 55\nCodec ID/Hint                            : MP3\nDuration                                 : 1h 36mn\nBit rate mode                            : Constant\nBit rate                                 : 192 Kbps\nChannel(s)                               : 2 channels\nSampling rate                            : 48.0 KHz\nCompression mode                         : Lossy\nStream size                              : 132 MiB (4%)\nAlignment                                : Aligned on interleaves\nInterleave, duration                     : 24 ms (0.58 video frame)\nInterleave, preload duration             : 504 ms\nWriting library                          : LAME3.99.5","torrent":{"xt":"urn:btih:69213237682853371863f1113aca0e6c370d212f","amp;dn":"The.Suicide.Theory.2014.720p.WEB-DL.XviD.MP3-RARBG","amp;tr":["udp%3A%2F%2Ftracker.openbittorrent.com%3A80","udp%3A%2F%2Fopen.demonii.com%3A1337","udp%3A%2F%2Ftracker.coppersurfer.tk%3A6969","udp%3A%2F%2Fexodus.desync.com%3A6969"],"infoHash":"69213237682853371863f1113aca0e6c370d212f","infoHashBuffer":{"type":"Buffer","data":[105,33,50,55,104,40,83,55,24,99,241,17,58,202,14,108,55,13,33,47]},"announce":[],"urlList":[]}}